<mxfile host="app.diagrams.net" modified="2021-09-01T07:41:08.425Z" agent="5.0 (Macintosh; Intel Mac OS X 10_15_6) AppleWebKit/605.1.15 (KHTML, like Gecko) Version/14.1.2 Safari/605.1.15" etag="2c1KDGpWmiVHXZHCyI4P" version="15.0.4" type="github">
  <diagram id="8t59e6v3-yaKopgbhADp" name="Page-1">
    <mxGraphModel dx="694" dy="594" grid="1" gridSize="10" guides="1" tooltips="1" connect="1" arrows="1" fold="1" page="1" pageScale="1" pageWidth="827" pageHeight="1169" math="0" shadow="0">
      <root>
        <mxCell id="0" />
        <mxCell id="1" parent="0" />
        <mxCell id="3iNR4eusYs71IMzZywhq-1" value="" style="swimlane;startSize=0;" vertex="1" parent="1">
          <mxGeometry x="120" y="100" width="560" height="600" as="geometry" />
        </mxCell>
        <mxCell id="3iNR4eusYs71IMzZywhq-12" value="" style="swimlane;startSize=0;" vertex="1" parent="3iNR4eusYs71IMzZywhq-1">
          <mxGeometry x="40" y="30" width="60" height="340" as="geometry" />
        </mxCell>
        <mxCell id="3iNR4eusYs71IMzZywhq-14" value="" style="swimlane;startSize=0;" vertex="1" parent="3iNR4eusYs71IMzZywhq-1">
          <mxGeometry x="200" y="30" width="200" height="200" as="geometry" />
        </mxCell>
        <mxCell id="3iNR4eusYs71IMzZywhq-15" value="" style="swimlane;startSize=0;" vertex="1" parent="3iNR4eusYs71IMzZywhq-1">
          <mxGeometry x="200" y="270" width="200" height="240" as="geometry" />
        </mxCell>
        <mxCell id="3iNR4eusYs71IMzZywhq-2" value="" style="endArrow=none;html=1;strokeWidth=3;entryX=0;entryY=0.367;entryDx=0;entryDy=0;entryPerimeter=0;" edge="1" parent="1" target="3iNR4eusYs71IMzZywhq-1">
          <mxGeometry width="50" height="50" relative="1" as="geometry">
            <mxPoint x="50" y="320" as="sourcePoint" />
            <mxPoint x="100" y="660" as="targetPoint" />
            <Array as="points" />
          </mxGeometry>
        </mxCell>
        <mxCell id="3iNR4eusYs71IMzZywhq-3" value="" style="endArrow=none;html=1;strokeWidth=3;entryX=0;entryY=0.25;entryDx=0;entryDy=0;" edge="1" parent="1" target="3iNR4eusYs71IMzZywhq-1">
          <mxGeometry width="50" height="50" relative="1" as="geometry">
            <mxPoint x="50" y="250" as="sourcePoint" />
            <mxPoint x="110" y="670" as="targetPoint" />
            <Array as="points" />
          </mxGeometry>
        </mxCell>
        <mxCell id="3iNR4eusYs71IMzZywhq-4" value="" style="endArrow=none;html=1;strokeWidth=3;entryX=0;entryY=0.5;entryDx=0;entryDy=0;" edge="1" parent="1" target="3iNR4eusYs71IMzZywhq-1">
          <mxGeometry width="50" height="50" relative="1" as="geometry">
            <mxPoint x="50" y="400" as="sourcePoint" />
            <mxPoint x="120" y="680" as="targetPoint" />
            <Array as="points" />
          </mxGeometry>
        </mxCell>
        <mxCell id="3iNR4eusYs71IMzZywhq-5" value="" style="endArrow=none;html=1;strokeWidth=3;entryX=1;entryY=0.25;entryDx=0;entryDy=0;" edge="1" parent="1" target="3iNR4eusYs71IMzZywhq-1">
          <mxGeometry width="50" height="50" relative="1" as="geometry">
            <mxPoint x="730" y="250" as="sourcePoint" />
            <mxPoint x="110" y="690" as="targetPoint" />
            <Array as="points" />
          </mxGeometry>
        </mxCell>
        <mxCell id="3iNR4eusYs71IMzZywhq-6" value="" style="endArrow=none;html=1;strokeWidth=3;" edge="1" parent="1">
          <mxGeometry width="50" height="50" relative="1" as="geometry">
            <mxPoint x="60" y="140" as="sourcePoint" />
            <mxPoint x="120" y="140" as="targetPoint" />
            <Array as="points">
              <mxPoint x="120" y="140" />
            </Array>
          </mxGeometry>
        </mxCell>
        <mxCell id="3iNR4eusYs71IMzZywhq-7" value="" style="endArrow=none;html=1;strokeWidth=3;entryX=1;entryY=0.167;entryDx=0;entryDy=0;entryPerimeter=0;" edge="1" parent="1" target="3iNR4eusYs71IMzZywhq-1">
          <mxGeometry width="50" height="50" relative="1" as="geometry">
            <mxPoint x="731.6666666666666" y="200" as="sourcePoint" />
            <mxPoint x="130" y="480.19999999999993" as="targetPoint" />
            <Array as="points" />
          </mxGeometry>
        </mxCell>
        <mxCell id="3iNR4eusYs71IMzZywhq-8" value="" style="endArrow=none;html=1;strokeWidth=3;entryX=1;entryY=0.317;entryDx=0;entryDy=0;entryPerimeter=0;" edge="1" parent="1" target="3iNR4eusYs71IMzZywhq-1">
          <mxGeometry width="50" height="50" relative="1" as="geometry">
            <mxPoint x="730" y="290" as="sourcePoint" />
            <mxPoint x="689.9999999999998" y="260" as="targetPoint" />
            <Array as="points" />
          </mxGeometry>
        </mxCell>
        <mxCell id="3iNR4eusYs71IMzZywhq-9" value="" style="endArrow=none;html=1;strokeWidth=3;entryX=0;entryY=0.6;entryDx=0;entryDy=0;entryPerimeter=0;" edge="1" parent="1" target="3iNR4eusYs71IMzZywhq-1">
          <mxGeometry width="50" height="50" relative="1" as="geometry">
            <mxPoint x="60" y="460" as="sourcePoint" />
            <mxPoint x="680" y="330" as="targetPoint" />
            <Array as="points" />
          </mxGeometry>
        </mxCell>
      </root>
    </mxGraphModel>
  </diagram>
</mxfile>
